STARTFONT 2.1
FONT -Adobe-Courier-Medium-R-Normal--34-240-100-100-M-200-ISO8859-2
SIZE 24 100 100
FONTBOUNDINGBOX 19 32 0 -6
COMMENT $XConsortium: courR24.bdf,v 1.10 95/01/26 17:53:41 gildea Exp $
COMMENT 
COMMENT +
COMMENT  Copyright 1984-1989, 1994 Adobe Systems Incorporated.
COMMENT  Copyright 1988, 1994 Digital Equipment Corporation.
COMMENT
COMMENT  Adobe is a trademark of Adobe Systems Incorporated which may be
COMMENT  registered in certain jurisdictions.
COMMENT  Permission to use these trademarks is hereby granted only in
COMMENT  association with the images described in this file.
COMMENT
COMMENT  Permission to use, copy, modify, distribute and sell this software
COMMENT  and its documentation for any purpose and without fee is hereby
COMMENT  granted, provided that the above copyright notices appear in all
COMMENT  copies and that both those copyright notices and this permission
COMMENT  notice appear in supporting documentation, and that the names of
COMMENT  Adobe Systems and Digital Equipment Corporation not be used in
COMMENT  advertising or publicity pertaining to distribution of the software
COMMENT  without specific, written prior permission.  Adobe Systems and
COMMENT  Digital Equipment Corporation make no representations about the
COMMENT  suitability of this software for any purpose.  It is provided "as
COMMENT  is" without express or implied warranty.
COMMENT -
COMMENT  
COMMENT  Translation to ISO8859-2 by Cub Soft;  Petr.Kolar@vslib.cz
COMMENT  
STARTPROPERTIES 28
FOUNDRY "Adobe"
FAMILY_NAME "Courier"
WEIGHT_NAME "Medium"
SLANT "R"
SETWIDTH_NAME "Normal"
ADD_STYLE_NAME ""
PIXEL_SIZE 34
POINT_SIZE 240
RESOLUTION_X 100
RESOLUTION_Y 100
SPACING "M"
AVERAGE_WIDTH 200
CHARSET_REGISTRY "ISO8859"
CHARSET_ENCODING "2"
CAP_HEIGHT 19
X_HEIGHT 14
FONT_ASCENT 23
FONT_DESCENT 6
FACE_NAME "Courier"

STARTCHAR space
ENCODING 32
SWIDTH 600 0
DWIDTH 20 0
BBX 1 1 0 0
BITMAP
00
ENDCHAR
STARTCHAR exclam
ENCODING 33
SWIDTH 600 0
DWIDTH 20 0
BBX 5 21 8 0
BITMAP
20
70
70
70
70
70
20
20
20
20
20
20
20
20
00
00
00
00
70
f8
70
ENDCHAR
STARTCHAR quotedbl
ENCODING 34
SWIDTH 600 0
DWIDTH 20 0
BBX 11 10 4 10
BITMAP
f1e0
f1e0
f1e0
f1e0
f1e0
60c0
60c0
4080
4080
4080
ENDCHAR
STARTCHAR numbersign
ENCODING 35
SWIDTH 600 0
DWIDTH 20 0
BBX 13 23 3 -2
BITMAP
0440
0440
0440
0440
0cc0
0880
0880
0880
7ff8
0880
0880
0880
0880
0880
fff0
0880
0880
0880
0980
1100
1100
1100
1100
ENDCHAR
STARTCHAR dollar
ENCODING 36
SWIDTH 600 0
DWIDTH 20 0
BBX 12 25 4 -3
BITMAP
0400
0400
0400
1f20
71e0
4060
8020
8000
c000
6000
3c00
0780
00e0
0030
0010
0010
8030
c060
f1c0
9f00
0400
0400
0400
0400
0400
ENDCHAR
STARTCHAR percent
ENCODING 37
SWIDTH 600 0
DWIDTH 20 0
BBX 15 20 3 0
BITMAP
1e00
3300
6180
4080
4080
6180
3300
1e0e
0070
0380
1c00
e000
01e0
0330
0618
0408
0408
0618
0330
01e0
ENDCHAR
STARTCHAR ampersand
ENCODING 38
SWIDTH 600 0
DWIDTH 20 0
BBX 12 17 3 0
BITMAP
0fc0
1980
3000
2000
2000
3000
1000
1800
3c00
6430
4660
c240
8340
c1c0
4180
63c0
3e70
ENDCHAR
STARTCHAR apostrophe
ENCODING 39
SWIDTH 600 0
DWIDTH 20 0
BBX 6 9 6 12
BITMAP
3c
3c
78
70
70
e0
c0
c0
80
ENDCHAR
STARTCHAR parenleft
ENCODING 40
SWIDTH 600 0
DWIDTH 20 0
BBX 5 25 9 -4
BITMAP
08
18
10
30
20
60
60
40
40
c0
c0
c0
c0
c0
c0
c0
40
40
60
60
20
30
10
18
08
ENDCHAR
STARTCHAR parenright
ENCODING 41
SWIDTH 600 0
DWIDTH 20 0
BBX 5 25 5 -4
BITMAP
80
c0
40
60
20
30
30
10
10
18
18
18
18
18
18
18
10
10
30
30
20
60
40
c0
80
ENDCHAR
STARTCHAR asterisk
ENCODING 42
SWIDTH 600 0
DWIDTH 20 0
BBX 11 13 4 8
BITMAP
0400
0400
0400
0400
8420
f5e0
1f00
0e00
0a00
1b00
3180
2080
60c0
ENDCHAR
STARTCHAR plus
ENCODING 43
SWIDTH 600 0
DWIDTH 20 0
BBX 15 17 2 1
BITMAP
0100
0100
0100
0100
0100
0100
0100
0100
fffe
0100
0100
0100
0100
0100
0100
0100
0100
ENDCHAR
STARTCHAR comma
ENCODING 44
SWIDTH 600 0
DWIDTH 20 0
BBX 6 9 5 -4
BITMAP
3c
3c
78
78
60
e0
c0
c0
80
ENDCHAR
STARTCHAR minus
ENCODING 45
SWIDTH 600 0
DWIDTH 20 0
BBX 15 1 2 9
BITMAP
fffe
ENDCHAR
STARTCHAR period
ENCODING 46
SWIDTH 600 0
DWIDTH 20 0
BBX 5 4 7 0
BITMAP
70
f8
f8
70
ENDCHAR
STARTCHAR slash
ENCODING 47
SWIDTH 600 0
DWIDTH 20 0
BBX 11 25 4 -3
BITMAP
0020
0060
0040
0040
00c0
0080
0180
0100
0300
0200
0200
0600
0400
0c00
0800
0800
1800
1000
3000
2000
6000
4000
4000
c000
8000
ENDCHAR
STARTCHAR zero
ENCODING 48
SWIDTH 600 0
DWIDTH 20 0
BBX 11 20 4 0
BITMAP
1f00
3180
60c0
4040
4040
8020
8020
8020
8020
8020
8020
8020
8020
8020
c060
4040
4040
60c0
3180
1f00
ENDCHAR
STARTCHAR one
ENCODING 49
SWIDTH 600 0
DWIDTH 20 0
BBX 11 20 4 0
BITMAP
0c00
3c00
e400
0400
0400
0400
0400
0400
0400
0400
0400
0400
0400
0400
0400
0400
0400
0400
0400
ffe0
ENDCHAR
STARTCHAR two
ENCODING 50
SWIDTH 600 0
DWIDTH 20 0
BBX 13 20 3 0
BITMAP
0fc0
3060
6010
4010
4010
0010
0030
0020
0060
00c0
0180
0300
0600
0c00
1800
3000
6000
c000
8008
fff8
ENDCHAR
STARTCHAR three
ENCODING 51
SWIDTH 600 0
DWIDTH 20 0
BBX 13 20 3 0
BITMAP
0f80
38e0
6030
0010
0010
0010
0010
0020
0040
0780
0060
0010
0008
0008
0008
0008
0018
c030
70e0
1f80
ENDCHAR
STARTCHAR four
ENCODING 52
SWIDTH 600 0
DWIDTH 20 0
BBX 13 20 3 0
BITMAP
00c0
0140
0140
0240
0640
0440
0840
1840
1040
2040
6040
4040
8040
fff8
0040
0040
0040
0040
0040
03f8
ENDCHAR
STARTCHAR five
ENCODING 53
SWIDTH 600 0
DWIDTH 20 0
BBX 13 20 3 0
BITMAP
3ff0
2000
2000
2000
2000
2000
2000
2780
3ce0
2030
0010
0018
0008
0008
0008
0018
c010
6030
38e0
0f80
ENDCHAR
STARTCHAR six
ENCODING 54
SWIDTH 600 0
DWIDTH 20 0
BBX 12 20 4 0
BITMAP
07c0
1c20
3000
2000
6000
4000
c000
8f80
b8e0
a020
c030
c010
c010
c010
c010
4010
6030
2020
38e0
0f80
ENDCHAR
STARTCHAR seven
ENCODING 55
SWIDTH 600 0
DWIDTH 20 0
BBX 11 20 4 0
BITMAP
ffe0
8020
8020
0060
0040
0040
00c0
0080
0080
0180
0100
0100
0300
0200
0200
0200
0600
0400
0400
0400
ENDCHAR
STARTCHAR eight
ENCODING 56
SWIDTH 600 0
DWIDTH 20 0
BBX 11 20 4 0
BITMAP
1f00
60c0
4040
c060
8020
8020
c060
4040
3180
1f00
71c0
4040
c060
8020
8020
8020
c060
4040
71c0
1f00
ENDCHAR
STARTCHAR nine
ENCODING 57
SWIDTH 600 0
DWIDTH 20 0
BBX 12 20 4 0
BITMAP
1f00
70c0
4060
c020
8030
8030
8030
8030
c050
40d0
7390
1e10
0020
0020
0020
0040
00c0
0180
0e00
7800
ENDCHAR
STARTCHAR colon
ENCODING 58
SWIDTH 600 0
DWIDTH 20 0
BBX 5 14 7 0
BITMAP
70
f8
f8
70
00
00
00
00
00
00
70
f8
f8
70
ENDCHAR
STARTCHAR semicolon
ENCODING 59
SWIDTH 600 0
DWIDTH 20 0
BBX 7 18 5 -4
BITMAP
1c
3e
3e
1c
00
00
00
00
00
3c
3c
78
70
70
e0
c0
c0
80
ENDCHAR
STARTCHAR less
ENCODING 60
SWIDTH 600 0
DWIDTH 20 0
BBX 15 17 2 1
BITMAP
0002
000e
0038
00e0
0380
0600
1c00
7000
c000
7000
1c00
0600
0380
00e0
0038
000e
0002
ENDCHAR
STARTCHAR equal
ENCODING 61
SWIDTH 600 0
DWIDTH 20 0
BBX 15 6 2 6
BITMAP
fffe
0000
0000
0000
0000
fffe
ENDCHAR
STARTCHAR greater
ENCODING 62
SWIDTH 600 0
DWIDTH 20 0
BBX 15 17 2 1
BITMAP
8000
e000
3800
0e00
0380
00c0
0070
001c
0006
001c
0070
00c0
0380
0e00
3800
e000
8000
ENDCHAR
STARTCHAR question
ENCODING 63
SWIDTH 600 0
DWIDTH 20 0
BBX 11 19 4 0
BITMAP
3f00
e1c0
8040
8040
0060
0020
0060
0040
01c0
0700
0400
0400
0400
0000
0000
0000
0e00
1f00
0e00
ENDCHAR
STARTCHAR at
ENCODING 64
SWIDTH 600 0
DWIDTH 20 0
BBX 12 23 3 -2
BITMAP
0f80
18c0
3040
6060
4020
c020
8020
80e0
83a0
8620
8420
8420
8420
8620
8320
81f0
8000
c000
4000
6000
3000
18e0
0f80
ENDCHAR
STARTCHAR A
ENCODING 65
SWIDTH 600 0
DWIDTH 20 0
BBX 19 19 0 0
BITMAP
1fe000
00a000
00a000
011000
011000
011000
020800
020800
020800
040400
040400
040400
0ffe00
080200
080200
100100
100100
300180
fe0fe0
ENDCHAR
STARTCHAR B
ENCODING 66
SWIDTH 600 0
DWIDTH 20 0
BBX 16 19 1 0
BITMAP
fff0
100c
1004
1006
1002
1002
1006
1004
100c
1ff8
1006
1002
1003
1001
1001
1003
1002
1006
fff8
ENDCHAR
STARTCHAR C
ENCODING 67
SWIDTH 600 0
DWIDTH 20 0
BBX 14 19 2 0
BITMAP
07c4
1c74
200c
6004
4004
c004
8000
8000
8000
8000
8000
8000
8000
c000
4000
6004
201c
1c70
07c0
ENDCHAR
STARTCHAR D
ENCODING 68
SWIDTH 600 0
DWIDTH 20 0
BBX 15 19 1 0
BITMAP
ffc0
2070
2018
200c
2004
2006
2002
2002
2002
2002
2002
2002
2002
2006
2004
200c
2018
2070
ffc0
ENDCHAR
STARTCHAR E
ENCODING 69
SWIDTH 600 0
DWIDTH 20 0
BBX 15 19 1 0
BITMAP
fffc
1004
1004
1004
1004
1044
1040
1040
1fc0
1040
1040
1040
1000
1002
1002
1002
1002
1002
fffe
ENDCHAR
STARTCHAR F
ENCODING 70
SWIDTH 600 0
DWIDTH 20 0
BBX 15 19 1 0
BITMAP
fffe
1002
1002
1002
1002
1042
1040
1040
1fc0
1040
1040
1040
1000
1000
1000
1000
1000
1000
ff80
ENDCHAR
STARTCHAR G
ENCODING 71
SWIDTH 600 0
DWIDTH 20 0
BBX 15 19 2 0
BITMAP
07c4
1c74
300c
6004
4004
c004
8000
8000
8000
8000
8000
80fe
8004
c004
4004
6004
3004
1c1c
07f0
ENDCHAR
STARTCHAR H
ENCODING 72
SWIDTH 600 0
DWIDTH 20 0
BBX 15 19 2 0
BITMAP
fc7e
2008
2008
2008
2008
2008
2008
2008
2008
3ff8
2008
2008
2008
2008
2008
2008
2008
2008
fc7e
ENDCHAR
STARTCHAR I
ENCODING 73
SWIDTH 600 0
DWIDTH 20 0
BBX 11 19 4 0
BITMAP
ffe0
0400
0400
0400
0400
0400
0400
0400
0400
0400
0400
0400
0400
0400
0400
0400
0400
0400
ffe0
ENDCHAR
STARTCHAR J
ENCODING 74
SWIDTH 600 0
DWIDTH 20 0
BBX 15 19 3 0
BITMAP
0ffe
0020
0020
0020
0020
0020
0020
0020
0020
0020
0020
8020
8020
8020
8020
c060
4040
61c0
1f00
ENDCHAR
STARTCHAR K
ENCODING 75
SWIDTH 600 0
DWIDTH 20 0
BBX 17 19 1 0
BITMAP
fe1f80
100400
100c00
100800
101000
103000
104000
10c000
138000
1cc000
102000
103000
101000
101800
100800
100800
100c00
100400
fe0780
ENDCHAR
STARTCHAR L
ENCODING 76
SWIDTH 600 0
DWIDTH 20 0
BBX 15 19 2 0
BITMAP
ff80
0800
0800
0800
0800
0800
0800
0800
0800
0800
0800
0800
0802
0802
0802
0802
0802
0802
fffe
ENDCHAR
STARTCHAR M
ENCODING 77
SWIDTH 600 0
DWIDTH 20 0
BBX 19 19 0 0
BITMAP
f803e0
280280
280280
240480
240480
220880
220880
211080
211080
211080
20a080
20a080
204080
204080
200080
200080
200080
200080
fe07e0
ENDCHAR
STARTCHAR N
ENCODING 78
SWIDTH 600 0
DWIDTH 20 0
BBX 18 19 0 0
BITMAP
f81fc0
1c0100
140100
120100
120100
110100
108100
108100
104100
104100
102100
102100
101100
101100
100900
100900
100500
100700
7f0300
ENDCHAR
STARTCHAR O
ENCODING 79
SWIDTH 600 0
DWIDTH 20 0
BBX 15 19 2 0
BITMAP
07c0
1830
3018
600c
4004
c006
8002
8002
8002
8002
8002
8002
8002
c006
4004
600c
3018
1830
07c0
ENDCHAR
STARTCHAR P
ENCODING 80
SWIDTH 600 0
DWIDTH 20 0
BBX 15 19 1 0
BITMAP
ffe0
1038
1004
1006
1002
1002
1002
1006
1004
1038
1fe0
1000
1000
1000
1000
1000
1000
1000
ffc0
ENDCHAR
STARTCHAR Q
ENCODING 81
SWIDTH 600 0
DWIDTH 20 0
BBX 15 22 2 -3
BITMAP
07c0
1c70
3018
600c
4004
c006
8002
8002
8002
8002
8002
8002
8002
c006
4004
600c
3838
0c60
07c0
0200
0fc6
187c
ENDCHAR
STARTCHAR R
ENCODING 82
SWIDTH 600 0
DWIDTH 20 0
BBX 18 19 1 0
BITMAP
ffe000
103800
100400
100600
100200
100200
100600
100400
101800
1fe000
106000
103000
101800
100c00
100400
100600
100200
100300
fe01c0
ENDCHAR
STARTCHAR S
ENCODING 83
SWIDTH 600 0
DWIDTH 20 0
BBX 12 19 3 0
BITMAP
0f90
38d0
6030
4030
4010
4010
4000
6000
3800
0f00
01c0
0060
0030
8010
8010
c010
e030
b8e0
8f80
ENDCHAR
STARTCHAR T
ENCODING 84
SWIDTH 600 0
DWIDTH 20 0
BBX 15 19 2 0
BITMAP
fffe
8102
8102
8102
8102
8102
8102
0100
0100
0100
0100
0100
0100
0100
0100
0100
0100
0100
3ff8
ENDCHAR
STARTCHAR U
ENCODING 85
SWIDTH 600 0
DWIDTH 20 0
BBX 17 19 1 0
BITMAP
fe3f80
200200
200200
200200
200200
200200
200200
200200
200200
200200
200200
200200
200200
200200
300600
100400
180c00
0e3800
03e000
ENDCHAR
STARTCHAR V
ENCODING 86
SWIDTH 600 0
DWIDTH 20 0
BBX 19 19 0 0
BITMAP
fe0fe0
300180
100100
100100
180300
080200
080200
0c0600
040400
040400
060c00
020800
031800
011000
011000
00a000
00a000
00e000
004000
ENDCHAR
STARTCHAR W
ENCODING 87
SWIDTH 600 0
DWIDTH 20 0
BBX 17 19 1 0
BITMAP
fc1f80
400100
400100
400100
400100
61c300
214200
214200
222200
222200
222200
222200
263200
241200
341600
141400
141400
180c00
180c00
ENDCHAR
STARTCHAR X
ENCODING 88
SWIDTH 600 0
DWIDTH 20 0
BBX 17 19 1 0
BITMAP
7c1f00
300600
100400
180c00
080800
041000
022000
036000
01c000
008000
01c000
022000
041000
0c1800
080800
100400
300600
600300
fc1f80
ENDCHAR
STARTCHAR Y
ENCODING 89
SWIDTH 600 0
DWIDTH 20 0
BBX 15 19 2 0
BITMAP
f83e
600c
3018
1010
1830
0820
0440
06c0
0280
0380
0100
0100
0100
0100
0100
0100
0100
0100
1ff0
ENDCHAR
STARTCHAR Z
ENCODING 90
SWIDTH 600 0
DWIDTH 20 0
BBX 13 19 3 0
BITMAP
7ff0
4010
4030
4020
4060
40c0
0080
0180
0300
0600
0400
0c00
1808
1008
3008
6008
4008
c008
fff8
ENDCHAR
STARTCHAR bracketleft
ENCODING 91
SWIDTH 600 0
DWIDTH 20 0
BBX 5 24 9 -4
BITMAP
f8
80
80
80
80
80
80
80
80
80
80
80
80
80
80
80
80
80
80
80
80
80
80
f8
ENDCHAR
STARTCHAR backslash
ENCODING 92
SWIDTH 600 0
DWIDTH 20 0
BBX 11 25 4 -3
BITMAP
8000
c000
4000
4000
6000
2000
3000
1000
1800
0800
0800
0c00
0400
0600
0200
0200
0300
0100
0180
0080
00c0
0040
0040
0060
0020
ENDCHAR
STARTCHAR bracketright
ENCODING 93
SWIDTH 600 0
DWIDTH 20 0
BBX 5 24 5 -4
BITMAP
f8
08
08
08
08
08
08
08
08
08
08
08
08
08
08
08
08
08
08
08
08
08
08
f8
ENDCHAR
STARTCHAR asciicircum
ENCODING 94
SWIDTH 600 0
DWIDTH 20 0
BBX 11 9 4 12
BITMAP
0400
0e00
1b00
1100
3180
60c0
4040
c060
8020
ENDCHAR
STARTCHAR underscore
ENCODING 95
SWIDTH 600 0
DWIDTH 20 0
BBX 19 1 0 -6
BITMAP
ffffe0
ENDCHAR
STARTCHAR grave
ENCODING 96
SWIDTH 600 0
DWIDTH 20 0
BBX 6 5 4 17
BITMAP
c0
60
30
18
0c
ENDCHAR
STARTCHAR a
ENCODING 97
SWIDTH 600 0
DWIDTH 20 0
BBX 15 14 2 0
BITMAP
0f80
38e0
0020
0030
0010
0010
1ff0
7030
c010
8010
8010
8030
c0f0
7f9e
ENDCHAR
STARTCHAR b
ENCODING 98
SWIDTH 600 0
DWIDTH 20 0
BBX 17 20 0 0
BITMAP
f00000
100000
100000
100000
100000
100000
11f800
170e00
140300
180100
180180
100080
100080
100080
100080
180180
180100
140300
170e00
f1f800
ENDCHAR
STARTCHAR c
ENCODING 99
SWIDTH 600 0
DWIDTH 20 0
BBX 14 14 3 0
BITMAP
0f88
38f8
6018
4008
c008
8000
8000
8000
8000
c000
400c
6018
38e0
0f80
ENDCHAR
STARTCHAR d
ENCODING 100
SWIDTH 600 0
DWIDTH 20 0
BBX 17 20 2 0
BITMAP
003c00
000400
000400
000400
000400
000400
0fc400
387400
601400
400c00
c00c00
800400
800400
800400
800400
c00c00
400c00
601400
387400
0fc780
ENDCHAR
STARTCHAR e
ENCODING 101
SWIDTH 600 0
DWIDTH 20 0
BBX 14 14 2 0
BITMAP
0fc0
3870
6018
4008
c00c
8004
fffc
8000
8000
c000
4000
600c
3838
0fe0
ENDCHAR
STARTCHAR f
ENCODING 102
SWIDTH 600 0
DWIDTH 20 0
BBX 13 20 3 0
BITMAP
03e0
0618
0400
0c00
0800
0800
fff0
0800
0800
0800
0800
0800
0800
0800
0800
0800
0800
0800
0800
fff0
ENDCHAR
STARTCHAR g
ENCODING 103
SWIDTH 600 0
DWIDTH 20 0
BBX 17 20 2 -6
BITMAP
0fc780
387400
601400
400c00
c00c00
800400
800400
800400
800400
c00c00
400c00
601400
387400
0fc400
000400
000400
000c00
000800
003800
0fe000
ENDCHAR
STARTCHAR h
ENCODING 104
SWIDTH 600 0
DWIDTH 20 0
BBX 16 20 1 0
BITMAP
f000
1000
1000
1000
1000
1000
11e0
1738
1408
180c
1804
1004
1004
1004
1004
1004
1004
1004
1004
7c1f
ENDCHAR
STARTCHAR i
ENCODING 105
SWIDTH 600 0
DWIDTH 20 0
BBX 13 20 3 0
BITMAP
0600
0600
0600
0000
0000
0000
7e00
0200
0200
0200
0200
0200
0200
0200
0200
0200
0200
0200
0200
fff8
ENDCHAR
STARTCHAR j
ENCODING 106
SWIDTH 600 0
DWIDTH 20 0
BBX 10 26 4 -6
BITMAP
0180
0180
0180
0000
0000
0000
ffc0
0040
0040
0040
0040
0040
0040
0040
0040
0040
0040
0040
0040
0040
0040
0040
00c0
0080
0380
fe00
ENDCHAR
STARTCHAR k
ENCODING 107
SWIDTH 600 0
DWIDTH 20 0
BBX 15 20 2 0
BITMAP
f000
1000
1000
1000
1000
1000
10fc
1030
1060
10c0
1180
1300
1e00
1300
1180
10c0
1060
1030
1018
f03e
ENDCHAR
STARTCHAR l
ENCODING 108
SWIDTH 600 0
DWIDTH 20 0
BBX 13 20 3 0
BITMAP
7e00
0200
0200
0200
0200
0200
0200
0200
0200
0200
0200
0200
0200
0200
0200
0200
0200
0200
0200
fff8
ENDCHAR
STARTCHAR m
ENCODING 109
SWIDTH 600 0
DWIDTH 20 0
BBX 19 14 0 0
BITMAP
e70e00
299300
30e180
306080
204080
204080
204080
204080
204080
204080
204080
204080
204080
f870e0
ENDCHAR
STARTCHAR n
ENCODING 110
SWIDTH 600 0
DWIDTH 20 0
BBX 15 14 2 0
BITMAP
e3c0
2e70
2810
3018
3008
2008
2008
2008
2008
2008
2008
2008
2008
f83e
ENDCHAR
STARTCHAR o
ENCODING 111
SWIDTH 600 0
DWIDTH 20 0
BBX 15 14 2 0
BITMAP
0fe0
3838
600c
4004
c006
8002
8002
8002
8002
c006
4004
600c
3838
0fe0
ENDCHAR
STARTCHAR p
ENCODING 112
SWIDTH 600 0
DWIDTH 20 0
BBX 17 20 0 -6
BITMAP
01f800
f70e00
140300
180100
180180
100080
100080
100080
100080
180180
180100
140300
170e00
11f800
100000
100000
100000
100000
100000
ff0000
ENDCHAR
STARTCHAR q
ENCODING 113
SWIDTH 600 0
DWIDTH 20 0
BBX 17 20 2 -6
BITMAP
0fc000
387780
601c00
400c00
c00c00
800400
800400
800400
800400
c00c00
400c00
601c00
387400
0fc400
000400
000400
000400
000400
000400
007f80
ENDCHAR
STARTCHAR r
ENCODING 114
SWIDTH 600 0
DWIDTH 20 0
BBX 15 14 3 0
BITMAP
787c
09c6
0b00
0c00
0c00
0800
0800
0800
0800
0800
0800
0800
0800
fff0
ENDCHAR
STARTCHAR s
ENCODING 115
SWIDTH 600 0
DWIDTH 20 0
BBX 13 14 3 0
BITMAP
0f90
38f0
6030
4010
6000
3800
0f80
00e0
0030
8018
8018
c030
f8e0
8f80
ENDCHAR
STARTCHAR t
ENCODING 116
SWIDTH 600 0
DWIDTH 20 0
BBX 14 19 2 0
BITMAP
1000
1000
1000
1000
1000
fff0
1000
1000
1000
1000
1000
1000
1000
1000
1000
1000
180c
0c38
07e0
ENDCHAR
STARTCHAR u
ENCODING 117
SWIDTH 600 0
DWIDTH 20 0
BBX 16 14 1 0
BITMAP
f03c
1004
1004
1004
1004
1004
1004
1004
1004
1004
100c
180c
0c34
07e7
ENDCHAR
STARTCHAR v
ENCODING 118
SWIDTH 600 0
DWIDTH 20 0
BBX 17 14 1 0
BITMAP
fc1f80
300600
100400
100400
180c00
080800
0c1800
041000
041000
063000
022000
036000
014000
01c000
ENDCHAR
STARTCHAR w
ENCODING 119
SWIDTH 600 0
DWIDTH 20 0
BBX 17 14 1 0
BITMAP
f80f80
600300
200200
200200
21c200
214200
314600
136400
122400
122400
163400
1c1c00
080800
080800
ENDCHAR
STARTCHAR x
ENCODING 120
SWIDTH 600 0
DWIDTH 20 0
BBX 15 14 2 0
BITMAP
f83e
600c
3018
1830
0c60
06c0
0380
0380
06c0
0c60
1830
3018
600c
f83e
ENDCHAR
STARTCHAR y
ENCODING 121
SWIDTH 600 0
DWIDTH 20 0
BBX 15 20 2 -6
BITMAP
f83e
4004
600c
2008
3018
1010
1830
0820
0c60
0440
06c0
0280
0380
0100
0300
0200
0200
0600
0400
ff80
ENDCHAR
STARTCHAR z
ENCODING 122
SWIDTH 600 0
DWIDTH 20 0
BBX 11 14 4 0
BITMAP
ffe0
8060
80c0
8180
0300
0600
0400
0c00
1800
3000
6020
4020
c020
ffe0
ENDCHAR
STARTCHAR braceleft
ENCODING 123
SWIDTH 600 0
DWIDTH 20 0
BBX 7 25 6 -4
BITMAP
06
0c
18
10
10
10
10
10
10
10
10
30
60
e0
30
10
10
10
10
10
10
10
10
18
0e
ENDCHAR
STARTCHAR bar
ENCODING 124
SWIDTH 600 0
DWIDTH 20 0
BBX 1 25 9 -4
BITMAP
80
80
80
80
80
80
80
80
80
80
80
80
80
80
80
80
80
80
80
80
80
80
80
80
80
ENDCHAR
STARTCHAR braceright
ENCODING 125
SWIDTH 600 0
DWIDTH 20 0
BBX 7 25 6 -4
BITMAP
c0
60
30
10
10
10
10
10
10
10
10
18
0c
0e
18
10
10
10
10
10
10
10
10
30
e0
ENDCHAR
STARTCHAR asciitilde
ENCODING 126
SWIDTH 600 0
DWIDTH 20 0
BBX 13 5 3 7
BITMAP
1800
7c08
c718
81b0
00e0
ENDCHAR
STARTCHAR nobreakspace
ENCODING 160
SWIDTH 600 0
DWIDTH 20 0
BBX 1 1 0 0
BITMAP
00
ENDCHAR
STARTCHAR Aogonek
ENCODING 161
SWIDTH 600 0
DWIDTH 20 0
BBX 19 25 0 -6
BITMAP
1fe000
00a000
00a000
011000
011000
011000
020800
020800
020800
040400
040400
040400
0ffe00
080200
080200
100100
100100
300180
fe0fe0
00c000
018000
010000
010000
01b000
00e000
ENDCHAR
STARTCHAR breve
ENCODING 162
SWIDTH 600 0
DWIDTH 20 0
BBX 9 5 5 16
BITMAP
8080
c180
4100
7700
1c00
ENDCHAR
STARTCHAR Lstroke
ENCODING 163
SWIDTH 600 0
DWIDTH 20 0
BBX 16 19 1 0
BITMAP
7fc0
0400
0400
0400
0400
0400
0460
05c0
0700
0e00
1c00
7400
c401
0401
0401
0401
0401
0401
7fff
ENDCHAR
STARTCHAR currency
ENCODING 164
SWIDTH 600 0
DWIDTH 20 0
BBX 13 13 3 3
BITMAP
c018
6fb0
38e0
2020
6030
4010
4010
4010
6030
2020
38e0
6fb0
c018
ENDCHAR
STARTCHAR Lcaron
ENCODING 165
SWIDTH 630 0
DWIDTH 21 0
BBX 16 22 2 0
BITMAP
000f
000f
001e
ff9c
081c
0838
0830
0830
0820
0800
0800
0800
0800
0800
0800
0802
0802
0802
0802
0802
0802
fffe
ENDCHAR
STARTCHAR Sacute
ENCODING 166
SWIDTH 600 0
DWIDTH 20 0
BBX 12 25 3 0
BITMAP
0030
0060
00c0
0180
0300
0000
0f90
38d0
6030
4030
4010
4010
4000
6000
3800
0f00
01c0
0060
0030
8010
8010
c010
e030
b8e0
8f80
ENDCHAR
STARTCHAR section
ENCODING 167
SWIDTH 600 0
DWIDTH 20 0
BBX 14 23 3 -2
BITMAP
07f8
1c08
1008
1008
1000
1800
7c00
c600
8300
81c0
c060
7038
180c
0c04
0704
0184
00fc
0060
0020
4020
4020
40e0
7f80
ENDCHAR
STARTCHAR diaeresis
ENCODING 168
SWIDTH 600 0
DWIDTH 20 0
BBX 10 3 5 17
BITMAP
6180
f3c0
6180
ENDCHAR
STARTCHAR Scaron
ENCODING 169
SWIDTH 600 0
DWIDTH 20 0
BBX 12 25 3 0
BITMAP
3060
18c0
0d80
0700
0200
0000
0f90
38d0
6030
4030
4010
4010
4000
6000
3800
0f00
01c0
0060
0030
8010
8010
c010
e030
b8e0
8f80
ENDCHAR
STARTCHAR Scedilla
ENCODING 170
SWIDTH 600 0
DWIDTH 20 0
BBX 12 24 3 -5
BITMAP
0f90
38d0
6030
4030
4010
4010
4000
6000
3800
0f00
01c0
0060
0030
8010
8010
c010
e030
b8e0
8f80
0400
0400
0600
1300
1e00
ENDCHAR
STARTCHAR Tcaron
ENCODING 171
SWIDTH 600 0
DWIDTH 20 0
BBX 15 25 2 0
BITMAP
1830
0c60
06c0
0380
0100
0000
fffe
8102
8102
8102
8102
8102
8102
0100
0100
0100
0100
0100
0100
0100
0100
0100
0100
0100
3ff8
ENDCHAR
STARTCHAR Zacute
ENCODING 172
SWIDTH 600 0
DWIDTH 20 0
BBX 13 25 3 0
BITMAP
0030
0060
00c0
0180
0300
0000
7ff0
4010
4030
4020
4060
40c0
0080
0180
0300
0600
0400
0c00
1808
1008
3008
6008
4008
c008
fff8
ENDCHAR
STARTCHAR hyphen
ENCODING 173
SWIDTH 600 0
DWIDTH 20 0
BBX 15 1 2 9
BITMAP
fffe
ENDCHAR
STARTCHAR Zcaron
ENCODING 174
SWIDTH 600 0
DWIDTH 20 0
BBX 13 25 3 0
BITMAP
3060
18c0
0d80
0700
0200
0000
7ff0
4010
4030
4020
4060
40c0
0080
0180
0300
0600
0400
0c00
1808
1008
3008
6008
4008
c008
fff8
ENDCHAR
STARTCHAR Zabovedot
ENCODING 175
SWIDTH 600 0
DWIDTH 20 0
BBX 13 23 3 0
BITMAP
0300
0780
0300
0000
7ff0
4010
4030
4020
4060
40c0
0080
0180
0300
0600
0400
0c00
1808
1008
3008
6008
4008
c008
fff8
ENDCHAR
STARTCHAR degree
ENCODING 176
SWIDTH 600 0
DWIDTH 20 0
BBX 9 10 5 11
BITMAP
3e00
6300
4100
c180
8080
8080
c180
4100
6300
3e00
ENDCHAR
STARTCHAR aogonek
ENCODING 177
SWIDTH 600 0
DWIDTH 20 0
BBX 15 20 2 -6
BITMAP
0f80
38e0
0020
0030
0010
0010
1ff0
7030
c010
8010
8010
8030
c0f0
7f9e
0300
0600
0400
0400
06c0
0380
ENDCHAR
STARTCHAR ogonek
ENCODING 178
SWIDTH 600 0
DWIDTH 20 0
BBX 5 6 9 -5
BITMAP
60
c0
80
80
d8
70
ENDCHAR
STARTCHAR lstroke
ENCODING 179
SWIDTH 600 0
DWIDTH 20 0
BBX 13 21 3 0
BITMAP
7e00
0200
0200
0200
0200
0200
0200
0220
02e0
0380
0700
0e00
3a00
2200
0200
0200
0200
0200
0200
0200
fff8
ENDCHAR
STARTCHAR acute
ENCODING 180
SWIDTH 600 0
DWIDTH 20 0
BBX 6 5 9 17
BITMAP
0c
18
30
60
c0
ENDCHAR
STARTCHAR lcaron
ENCODING 181
SWIDTH 630 0
DWIDTH 21 0
BBX 14 23 3 0
BITMAP
003c
003c
0078
7e70
0270
02e0
02c0
02c0
0280
0200
0200
0200
0200
0200
0200
0200
0200
0200
0200
0200
0200
0200
fff8
ENDCHAR
STARTCHAR sacute
ENCODING 182
SWIDTH 600 0
DWIDTH 20 0
BBX 13 20 3 0
BITMAP
0030
0060
00c0
0180
0300
0000
0f90
38f0
6030
4010
6000
3800
0f80
00e0
0030
8018
8018
c030
f8e0
8f80
ENDCHAR
STARTCHAR caron
ENCODING 183
SWIDTH 600 0
DWIDTH 20 0
BBX 9 5 5 17
BITMAP
c180
6300
3600
1c00
0800
ENDCHAR
STARTCHAR cedilla
ENCODING 184
SWIDTH 600 0
DWIDTH 20 0
BBX 5 5 7 -5
BITMAP
20
20
30
98
f0
ENDCHAR
STARTCHAR scaron
ENCODING 185
SWIDTH 600 0
DWIDTH 20 0
BBX 13 20 3 0
BITMAP
3060
18c0
0d80
0700
0200
0000
0f90
38f0
6030
4010
6000
3800
0f80
00e0
0030
8018
8018
c030
f8e0
8f80
ENDCHAR
STARTCHAR scedilla
ENCODING 186
SWIDTH 600 0
DWIDTH 20 0
BBX 13 19 3 -5
BITMAP
0f90
38f0
6030
4010
6000
3800
0f80
00e0
0030
8018
8018
c030
f8e0
8f80
0200
0200
0300
0980
0f00
ENDCHAR
STARTCHAR tcaron
ENCODING 187
SWIDTH 600 0
DWIDTH 20 0
BBX 14 24 2 0
BITMAP
01e0
01e0
03c0
0380
0380
1700
1600
1600
1400
1000
fff0
1000
1000
1000
1000
1000
1000
1000
1000
1000
1000
180c
0c38
07e0
ENDCHAR
STARTCHAR zacute
ENCODING 188
SWIDTH 600 0
DWIDTH 20 0
BBX 11 20 4 0
BITMAP
0060
00c0
0180
0300
0600
0000
ffe0
8060
80c0
8180
0300
0600
0400
0c00
1800
3000
6020
4020
c020
ffe0
ENDCHAR
STARTCHAR doubleacute
ENCODING 189
SWIDTH 600 0
DWIDTH 20 0
BBX 9 5 5 16
BITMAP
1080
3180
6300
c600
8400
ENDCHAR
STARTCHAR zcaron
ENCODING 190
SWIDTH 600 0
DWIDTH 20 0
BBX 11 20 4 0
BITMAP
60c0
3180
1b00
0e00
0400
0000
ffe0
8060
80c0
8180
0300
0600
0400
0c00
1800
3000
6020
4020
c020
ffe0
ENDCHAR
STARTCHAR zabovedot
ENCODING 191
SWIDTH 600 0
DWIDTH 20 0
BBX 11 18 4 0
BITMAP
0600
0f00
0600
0000
ffe0
8060
80c0
8180
0300
0600
0400
0c00
1800
3000
6020
4020
c020
ffe0
ENDCHAR
STARTCHAR Racute
ENCODING 192
SWIDTH 600 0
DWIDTH 20 0
BBX 18 25 1 0
BITMAP
003000
006000
00c000
018000
030000
000000
ffe000
103800
100400
100600
100200
100200
100600
100400
101800
1fe000
106000
103000
101800
100c00
100400
100600
100200
100300
fe01c0
ENDCHAR
STARTCHAR Aacute
ENCODING 193
SWIDTH 600 0
DWIDTH 20 0
BBX 19 26 0 0
BITMAP
000c00
001800
003000
006000
00c000
000000
000000
1fe000
00a000
01b000
011000
011000
031800
020800
020800
060c00
040400
040400
0c0600
0ffe00
080200
180300
100100
100100
300180
fe0fe0
ENDCHAR
STARTCHAR Acircumflex
ENCODING 194
SWIDTH 600 0
DWIDTH 20 0
BBX 19 26 0 0
BITMAP
004000
00e000
01b000
031800
060c00
000000
000000
1fe000
00a000
01b000
011000
011000
031800
020800
020800
060c00
040400
040400
0c0600
0ffe00
080200
180300
100100
100100
300180
fe0fe0
ENDCHAR
STARTCHAR Abreve
ENCODING 195
SWIDTH 600 0
DWIDTH 20 0
BBX 19 25 0 0
BITMAP
202000
306000
104000
1dc000
070000
000000
1fe000
00a000
00a000
011000
011000
011000
020800
020800
020800
040400
040400
040400
0ffe00
080200
080200
100100
100100
300180
fe0fe0
ENDCHAR
STARTCHAR Adiaeresis
ENCODING 196
SWIDTH 600 0
DWIDTH 20 0
BBX 19 24 0 0
BITMAP
060c00
0f1e00
060c00
000000
000000
1fe000
00a000
01b000
011000
011000
031800
020800
020800
060c00
040400
040400
0c0600
0ffe00
080200
180300
100100
100100
300180
fe0fe0
ENDCHAR
STARTCHAR Lacute
ENCODING 197
SWIDTH 600 0
DWIDTH 20 0
BBX 15 25 2 0
BITMAP
00c0
0180
0300
0600
0c00
0000
ff80
0800
0800
0800
0800
0800
0800
0800
0800
0800
0800
0800
0802
0802
0802
0802
0802
0802
fffe
ENDCHAR
STARTCHAR Cacute
ENCODING 198
SWIDTH 600 0
DWIDTH 20 0
BBX 14 25 2 0
BITMAP
0018
0030
0060
00c0
0180
0000
07c4
1c74
200c
6004
4004
c004
8000
8000
8000
8000
8000
8000
8000
c000
4000
6004
201c
1c70
07c0
ENDCHAR
STARTCHAR Ccedilla
ENCODING 199
SWIDTH 600 0
DWIDTH 20 0
BBX 15 24 2 -5
BITMAP
07c4
1c74
300c
600c
4004
c004
8000
8000
8000
8000
8000
8000
8000
c000
4002
6004
301c
1c70
07c0
0100
0100
0180
04c0
0780
ENDCHAR
STARTCHAR Ccaron
ENCODING 200
SWIDTH 600 0
DWIDTH 20 0
BBX 14 25 2 0
BITMAP
1830
0c60
06c0
0380
0100
0000
07c4
1c74
200c
6004
4004
c004
8000
8000
8000
8000
8000
8000
8000
c000
4000
6004
201c
1c70
07c0
ENDCHAR
STARTCHAR Eacute
ENCODING 201
SWIDTH 600 0
DWIDTH 20 0
BBX 15 26 1 0
BITMAP
0030
0060
00c0
0180
0300
0000
0000
fffc
1004
1004
1004
1004
1004
1040
1040
1040
1fc0
1040
1040
1000
1002
1002
1002
1002
1002
fffe
ENDCHAR
STARTCHAR Eogonek
ENCODING 202
SWIDTH 600 0
DWIDTH 20 0
BBX 15 25 1 -6
BITMAP
fffc
1004
1004
1004
1004
1044
1040
1040
1fc0
1040
1040
1040
1000
1002
1002
1002
1002
1002
fffe
0300
0600
0400
0400
06c0
0380
ENDCHAR
STARTCHAR Ediaeresis
ENCODING 203
SWIDTH 600 0
DWIDTH 20 0
BBX 15 24 1 0
BITMAP
0c30
1e78
0c30
0000
0000
fffc
1004
1004
1004
1004
1004
1040
1040
1040
1fc0
1040
1040
1000
1002
1002
1002
1002
1002
fffe
ENDCHAR
STARTCHAR Ecaron
ENCODING 204
SWIDTH 600 0
DWIDTH 20 0
BBX 15 25 1 0
BITMAP
3060
18c0
0d80
0700
0200
0000
fffc
1004
1004
1004
1004
1044
1040
1040
1fc0
1040
1040
1040
1000
1002
1002
1002
1002
1002
fffe
ENDCHAR
STARTCHAR Iacute
ENCODING 205
SWIDTH 600 0
DWIDTH 20 0
BBX 11 26 4 0
BITMAP
00c0
0180
0300
0600
0c00
0000
0000
ffe0
0400
0400
0400
0400
0400
0400
0400
0400
0400
0400
0400
0400
0400
0400
0400
0400
0400
ffe0
ENDCHAR
STARTCHAR Icircumflex
ENCODING 206
SWIDTH 600 0
DWIDTH 20 0
BBX 11 26 4 0
BITMAP
0400
0e00
1b00
3180
60c0
0000
0000
ffe0
0400
0400
0400
0400
0400
0400
0400
0400
0400
0400
0400
0400
0400
0400
0400
0400
0400
ffe0
ENDCHAR
STARTCHAR Dcaron
ENCODING 207
SWIDTH 600 0
DWIDTH 20 0
BBX 15 25 1 0
BITMAP
3060
18c0
0d80
0700
0200
0000
ffc0
2070
2018
200c
2004
2006
2002
2002
2002
2002
2002
2002
2002
2006
2004
200c
2018
2070
ffc0
ENDCHAR
STARTCHAR Dstroke
ENCODING 208
SWIDTH 600 0
DWIDTH 20 0
BBX 15 19 1 0
BITMAP
ffc0
2070
2018
200c
2004
2006
2002
2002
2002
fe02
2002
2002
2002
2006
2004
200c
2018
2070
ffc0
ENDCHAR
STARTCHAR Nacute
ENCODING 209
SWIDTH 600 0
DWIDTH 20 0
BBX 18 25 0 0
BITMAP
000c00
001800
003000
006000
00c000
000000
f81fc0
1c0100
140100
120100
120100
110100
108100
108100
104100
104100
102100
102100
101100
101100
100900
100900
100500
100700
7f0300
ENDCHAR
STARTCHAR Ncaron
ENCODING 210
SWIDTH 600 0
DWIDTH 20 0
BBX 18 25 0 0
BITMAP
0c1800
063000
036000
01c000
008000
000000
f81fc0
1c0100
140100
120100
120100
110100
108100
108100
104100
104100
102100
102100
101100
101100
100900
100900
100500
100700
7f0300
ENDCHAR
STARTCHAR Oacute
ENCODING 211
SWIDTH 600 0
DWIDTH 20 0
BBX 15 26 2 0
BITMAP
0018
0030
0060
00c0
0180
0000
0000
07c0
1c70
3018
600c
4004
c006
8002
8002
8002
8002
8002
8002
c006
4004
600c
2008
3018
1c70
07c0
ENDCHAR
STARTCHAR Ocircumflex
ENCODING 212
SWIDTH 600 0
DWIDTH 20 0
BBX 15 26 2 0
BITMAP
0100
0380
06c0
0c60
1830
0000
0000
07c0
1c70
3018
600c
4004
c006
8002
8002
8002
8002
8002
8002
c006
4004
600c
2008
3018
1c70
07c0
ENDCHAR
STARTCHAR Odoubleacute
ENCODING 213
SWIDTH 600 0
DWIDTH 20 0
BBX 15 25 2 0
BITMAP
0084
018c
0318
0630
0420
0000
07c0
1830
3018
600c
4004
c006
8002
8002
8002
8002
8002
8002
8002
c006
4004
600c
3018
1830
07c0
ENDCHAR
STARTCHAR Odiaeresis
ENCODING 214
SWIDTH 600 0
DWIDTH 20 0
BBX 15 24 2 0
BITMAP
3030
7878
3030
0000
0000
07c0
1c70
3018
600c
4004
c006
8002
8002
8002
8002
8002
8002
c006
4004
600c
2008
3018
1c70
07c0
ENDCHAR
STARTCHAR multiply
ENCODING 215
SWIDTH 600 0
DWIDTH 20 0
BBX 13 14 3 1
BITMAP
8008
c018
6030
3060
18c0
0d80
0700
0700
0d80
18c0
3060
6030
c018
8008
ENDCHAR
STARTCHAR Rcaron
ENCODING 216
SWIDTH 600 0
DWIDTH 20 0
BBX 18 25 1 0
BITMAP
306000
18c000
0d8000
070000
020000
000000
ffe000
103800
100400
100600
100200
100200
100600
100400
101800
1fe000
106000
103000
101800
100c00
100400
100600
100200
100300
fe01c0
ENDCHAR
STARTCHAR Uring
ENCODING 217
SWIDTH 600 0
DWIDTH 20 0
BBX 17 26 1 0
BITMAP
01c000
036000
022000
022000
036000
01c000
000000
fe3f80
200200
200200
200200
200200
200200
200200
200200
200200
200200
200200
200200
200200
200200
300600
100400
180c00
0e3800
03e000
ENDCHAR
STARTCHAR Uacute
ENCODING 218
SWIDTH 600 0
DWIDTH 20 0
BBX 17 26 1 0
BITMAP
001800
003000
006000
00c000
018000
000000
000000
fe3f80
200200
200200
200200
200200
200200
200200
200200
200200
200200
200200
200200
200200
200200
300600
100400
180c00
0e3800
03e000
ENDCHAR
STARTCHAR Udoubleacute
ENCODING 219
SWIDTH 600 0
DWIDTH 20 0
BBX 17 25 1 0
BITMAP
004200
00c600
018c00
031800
021000
000000
fe3f80
200200
200200
200200
200200
200200
200200
200200
200200
200200
200200
200200
200200
200200
300600
100400
180c00
0e3800
03e000
ENDCHAR
STARTCHAR Udiaeresis
ENCODING 220
SWIDTH 600 0
DWIDTH 20 0
BBX 17 24 1 0
BITMAP
0c1800
1e3c00
0c1800
000000
000000
fe3f80
200200
200200
200200
200200
200200
200200
200200
200200
200200
200200
200200
200200
200200
300600
100400
180c00
0e3800
03e000
ENDCHAR
STARTCHAR Yacute
ENCODING 221
SWIDTH 600 0
DWIDTH 20 0
BBX 15 26 2 0
BITMAP
0030
0060
00c0
0180
0300
0000
0000
f83e
600c
3018
1010
1830
0820
0c60
06c0
0280
0380
0100
0100
0100
0100
0100
0100
0100
0100
1ff0
ENDCHAR
STARTCHAR Tcedilla
ENCODING 222
SWIDTH 600 0
DWIDTH 20 0
BBX 15 24 2 -5
BITMAP
fffe
8102
8102
8102
8102
8102
8102
0100
0100
0100
0100
0100
0100
0100
0100
0100
0100
0100
3ff8
0100
0100
0180
04c0
0780
ENDCHAR
STARTCHAR ssharp
ENCODING 223
SWIDTH 600 0
DWIDTH 20 0
BBX 15 21 1 0
BITMAP
07c0
0c60
0820
1830
1010
1010
1010
1030
1060
11c0
1070
1018
1004
1006
1002
1002
1002
1106
1104
118c
f8f8
ENDCHAR
STARTCHAR racute
ENCODING 224
SWIDTH 600 0
DWIDTH 20 0
BBX 15 20 3 0
BITMAP
0018
0030
0060
00c0
0180
0000
787c
09c6
0b00
0c00
0c00
0800
0800
0800
0800
0800
0800
0800
0800
fff0
ENDCHAR
STARTCHAR aacute
ENCODING 225
SWIDTH 600 0
DWIDTH 20 0
BBX 15 22 2 0
BITMAP
0060
00c0
0180
0300
0600
0000
0000
0000
0f80
38e0
0020
0030
0010
0010
1ff0
7030
c010
8010
8010
8030
c0f0
7f9e
ENDCHAR
STARTCHAR acircumflex
ENCODING 226
SWIDTH 600 0
DWIDTH 20 0
BBX 15 22 2 0
BITMAP
0100
0380
06c0
0c60
1830
0000
0000
0000
0f80
38e0
0020
0030
0010
0010
1ff0
7030
c010
8010
8010
8030
c0f0
7f9e
ENDCHAR
STARTCHAR abreve
ENCODING 227
SWIDTH 600 0
DWIDTH 20 0
BBX 15 20 2 0
BITMAP
2020
3060
1040
1dc0
0700
0000
0f80
38e0
0020
0030
0010
0010
1ff0
7030
c010
8010
8010
8030
c0f0
7f9e
ENDCHAR
STARTCHAR adiaeresis
ENCODING 228
SWIDTH 600 0
DWIDTH 20 0
BBX 15 20 2 0
BITMAP
30c0
79e0
30c0
0000
0000
0000
0f80
38e0
0020
0030
0010
0010
1ff0
7030
c010
8010
8010
8030
c0f0
7f9e
ENDCHAR
STARTCHAR lacute
ENCODING 229
SWIDTH 600 0
DWIDTH 20 0
BBX 13 26 3 0
BITMAP
0180
0300
0600
0c00
1800
0000
7e00
0200
0200
0200
0200
0200
0200
0200
0200
0200
0200
0200
0200
0200
0200
0200
0200
0200
0200
fff8
ENDCHAR
STARTCHAR cacute
ENCODING 230
SWIDTH 600 0
DWIDTH 20 0
BBX 14 20 3 0
BITMAP
0030
0060
00c0
0180
0300
0000
0f88
38f8
6018
4008
c008
8000
8000
8000
8000
c000
400c
6018
38e0
0f80
ENDCHAR
STARTCHAR ccedilla
ENCODING 231
SWIDTH 600 0
DWIDTH 20 0
BBX 14 19 3 -5
BITMAP
0fc8
3868
6018
4018
c008
8008
8000
8000
8000
c000
4004
601c
3870
0fc0
0200
0200
0300
0980
0f00
ENDCHAR
STARTCHAR ccaron
ENCODING 232
SWIDTH 600 0
DWIDTH 20 0
BBX 14 20 3 0
BITMAP
3060
18c0
0d80
0700
0200
0000
0f88
38f8
6018
4008
c008
8000
8000
8000
8000
c000
400c
6018
38e0
0f80
ENDCHAR
STARTCHAR eacute
ENCODING 233
SWIDTH 600 0
DWIDTH 20 0
BBX 14 22 2 0
BITMAP
0030
0060
00c0
0180
0300
0000
0000
0000
0fc0
3870
6018
4008
c00c
8004
fffc
8000
8000
8000
c000
600c
3838
0fe0
ENDCHAR
STARTCHAR eogonek
ENCODING 234
SWIDTH 600 0
DWIDTH 20 0
BBX 14 20 2 -6
BITMAP
0fc0
3870
6018
4008
c00c
8004
fffc
8000
8000
c000
4000
600c
3838
0fe0
0600
0c00
0800
0800
0d80
0700
ENDCHAR
STARTCHAR ediaeresis
ENCODING 235
SWIDTH 600 0
DWIDTH 20 0
BBX 14 20 2 0
BITMAP
3060
78f0
3060
0000
0000
0000
0fc0
3870
6018
4008
c00c
8004
fffc
8000
8000
8000
c000
600c
3838
0fe0
ENDCHAR
STARTCHAR ecaron
ENCODING 236
SWIDTH 600 0
DWIDTH 20 0
BBX 14 20 2 0
BITMAP
3060
18c0
0d80
0700
0200
0000
0fc0
3870
6018
4008
c00c
8004
fffc
8000
8000
c000
4000
600c
3838
0fe0
ENDCHAR
STARTCHAR iacute
ENCODING 237
SWIDTH 600 0
DWIDTH 20 0
BBX 13 22 3 0
BITMAP
00c0
0180
0300
0600
0c00
0000
0000
0000
7e00
0200
0200
0200
0200
0200
0200
0200
0200
0200
0200
0200
0200
fff8
ENDCHAR
STARTCHAR icircumflex
ENCODING 238
SWIDTH 600 0
DWIDTH 20 0
BBX 13 21 3 0
BITMAP
0400
0e00
1b00
3180
60c0
0000
0000
7e00
0200
0200
0200
0200
0200
0200
0200
0200
0200
0200
0200
0200
fff8
ENDCHAR
STARTCHAR dcaron
ENCODING 239
SWIDTH 720 0
DWIDTH 24 0
BBX 21 23 2 0
BITMAP
000078
000078
0000f0
003ce0
0004e0
0005c0
000580
000580
000500
0fc400
387400
601400
400c00
c00c00
800400
800400
800400
800400
c00c00
400c00
601400
387400
0fc780
ENDCHAR
STARTCHAR dstroke
ENCODING 240
SWIDTH 600 0
DWIDTH 20 0
BBX 17 20 2 0
BITMAP
003c00
000400
000400
001f00
001f00
000400
0fc400
387400
601400
400c00
c00c00
800400
800400
800400
800400
c00c00
400c00
601400
387400
0fc780
ENDCHAR
STARTCHAR nacute
ENCODING 241
SWIDTH 600 0
DWIDTH 20 0
BBX 15 20 2 0
BITMAP
0060
00c0
0180
0300
0600
0000
e3c0
2e70
2810
3018
3008
2008
2008
2008
2008
2008
2008
2008
2008
f83e
ENDCHAR
STARTCHAR ncaron
ENCODING 242
SWIDTH 600 0
DWIDTH 20 0
BBX 15 20 2 0
BITMAP
60c0
3180
1b00
0e00
0400
0000
e3c0
2e70
2810
3018
3008
2008
2008
2008
2008
2008
2008
2008
2008
f83e
ENDCHAR
STARTCHAR oacute
ENCODING 243
SWIDTH 600 0
DWIDTH 20 0
BBX 15 22 2 0
BITMAP
0030
0060
00c0
0180
0300
0000
0000
0000
0fe0
3838
600c
4004
c006
8002
8002
8002
8002
c006
4004
600c
3838
0fe0
ENDCHAR
STARTCHAR ocircumflex
ENCODING 244
SWIDTH 600 0
DWIDTH 20 0
BBX 15 22 2 0
BITMAP
0180
03c0
0660
0c30
1818
0000
0000
0000
0fe0
3838
600c
4004
c006
8002
8002
8002
8002
c006
4004
600c
3838
0fe0
ENDCHAR
STARTCHAR odoubleacute
ENCODING 245
SWIDTH 600 0
DWIDTH 20 0
BBX 15 20 2 0
BITMAP
0084
018c
0318
0630
0420
0000
0fe0
3838
600c
4004
c006
8002
8002
8002
8002
c006
4004
600c
3838
0fe0
ENDCHAR
STARTCHAR odiaeresis
ENCODING 246
SWIDTH 600 0
DWIDTH 20 0
BBX 15 20 2 0
BITMAP
1860
3cf0
1860
0000
0000
0000
0fe0
3838
600c
4004
c006
8002
8002
8002
8002
c006
4004
600c
3838
0fe0
ENDCHAR
STARTCHAR division
ENCODING 247
SWIDTH 600 0
DWIDTH 20 0
BBX 14 16 2 1
BITMAP
0300
0780
0300
0000
0000
0000
0000
0000
fffc
0000
0000
0000
0000
0300
0780
0300
ENDCHAR
STARTCHAR rcaron
ENCODING 248
SWIDTH 600 0
DWIDTH 20 0
BBX 15 20 3 0
BITMAP
1830
0c60
06c0
0380
0100
0000
787c
09c6
0b00
0c00
0c00
0800
0800
0800
0800
0800
0800
0800
0800
fff0
ENDCHAR
STARTCHAR uring
ENCODING 249
SWIDTH 600 0
DWIDTH 20 0
BBX 16 21 1 0
BITMAP
0700
0d80
0880
0880
0d80
0700
0000
f03c
1004
1004
1004
1004
1004
1004
1004
1004
1004
100c
180c
0c34
07e7
ENDCHAR
STARTCHAR uacute
ENCODING 250
SWIDTH 600 0
DWIDTH 20 0
BBX 16 22 1 0
BITMAP
0030
0060
00c0
0180
0300
0000
0000
0000
f03c
1004
1004
1004
1004
1004
1004
1004
1004
1004
100c
181c
0c34
07e7
ENDCHAR
STARTCHAR udoubleacute
ENCODING 251
SWIDTH 600 0
DWIDTH 20 0
BBX 16 20 1 0
BITMAP
0108
0318
0630
0c60
0840
0000
f03c
1004
1004
1004
1004
1004
1004
1004
1004
1004
100c
180c
0c34
07e7
ENDCHAR
STARTCHAR udiaeresis
ENCODING 252
SWIDTH 600 0
DWIDTH 20 0
BBX 16 20 1 0
BITMAP
1830
3c78
1830
0000
0000
0000
f03c
1004
1004
1004
1004
1004
1004
1004
1004
1004
100c
181c
0c34
07e7
ENDCHAR
STARTCHAR yacute
ENCODING 253
SWIDTH 600 0
DWIDTH 20 0
BBX 15 28 2 -6
BITMAP
0030
0060
00c0
0180
0300
0000
0000
0000
f83e
4004
600c
2008
3018
1010
1830
0820
0c60
0440
06c0
0280
0380
0100
0300
0200
0200
0600
0400
7f80
ENDCHAR
STARTCHAR tcedilla
ENCODING 254
SWIDTH 600 0
DWIDTH 20 0
BBX 14 24 2 -5
BITMAP
1000
1000
1000
1000
1000
fff0
1000
1000
1000
1000
1000
1000
1000
1000
1000
1000
180c
0c38
07e0
0200
0200
0300
0980
0f00
ENDCHAR
STARTCHAR abovedot
ENCODING 255
SWIDTH 600 0
DWIDTH 20 0
BBX 4 3 8 17
BITMAP
60
f0
60
ENDCHAR
ENDFONT
